<svg id="Layer_1" data-name="Layer 1" xmlns="http://www.w3.org/2000/svg" viewBox="0 0 150 150">
  <defs>
    <style>
      .cls-1 {
        fill: #f38320;
      }
    </style>
  </defs>
  <g>
    <path class="cls-1" d="M74.64,37.89a37.37,37.37,0,0,0-28.09,62l27.7-55.33,28.13,55.73A37.38,37.38,0,0,0,74.64,37.89Z"/>
    <path class="cls-1" d="M57.32,108.4a37.37,37.37,0,0,0,34.19.22L74.25,74.48Z"/>
    <path class="cls-1" d="M74.64,12.09a63.18,63.18,0,1,0,63.18,63.18A63.18,63.18,0,0,0,74.64,12.09Zm0,114.06a50.88,50.88,0,1,1,50.87-50.88A50.94,50.94,0,0,1,74.64,126.15Z"/>
  </g>
</svg>
